<svg viewBox="0 0 1600 900" xmlns="http://www.w3.org/2000/svg">
  <defs>
    <radialGradient id="glow1" cx="50%" cy="50%" r="50%">
      <stop offset="0%" stop-color="#2f7dff" stop-opacity="0.55"/>
      <stop offset="100%" stop-color="#2f7dff" stop-opacity="0"/>
    </radialGradient>
    <radialGradient id="glow2" cx="50%" cy="50%" r="50%">
      <stop offset="0%" stop-color="#17d9c4" stop-opacity="0.5"/>
      <stop offset="100%" stop-color="#17d9c4" stop-opacity="0"/>
    </radialGradient>
    <linearGradient id="line" x1="0" y1="0" x2="1" y2="0">
      <stop offset="0%" stop-color="#2f7dff" stop-opacity="0"/>
      <stop offset="50%" stop-color="#2f7dff" stop-opacity="0.5"/>
      <stop offset="100%" stop-color="#17d9c4" stop-opacity="0"/>
    </linearGradient>
  </defs>
  <rect width="1600" height="900" fill="#0a0d12"/>
  <circle cx="260" cy="180" r="360" fill="url(#glow1)"/>
  <circle cx="1360" cy="700" r="420" fill="url(#glow2)"/>

  <g stroke="url(#line)" stroke-width="1.5" fill="none" opacity="0.8">
    <line x1="120" y1="220" x2="640" y2="360"/>
    <line x1="640" y1="360" x2="1120" y2="240"/>
    <line x1="1120" y1="240" x2="1480" y2="520"/>
    <line x1="640" y1="360" x2="760" y2="640"/>
    <line x1="760" y1="640" x2="1200" y2="700"/>
    <line x1="1120" y1="240" x2="1440" y2="140"/>
    <line x1="200" y1="600" x2="640" y2="360"/>
  </g>

  <g fill="#2f7dff" opacity="0.85">
    <circle cx="120" cy="220" r="5"/>
    <circle cx="640" cy="360" r="7"/>
    <circle cx="1120" cy="240" r="5"/>
    <circle cx="1440" cy="140" r="4"/>
  </g>
  <g fill="#17d9c4" opacity="0.85">
    <circle cx="1480" cy="520" r="6"/>
    <circle cx="760" cy="640" r="5"/>
    <circle cx="1200" cy="700" r="6"/>
    <circle cx="200" cy="600" r="4"/>
  </g>
</svg>
